# xmcd
#
# Track frame offsets:
# 150
# 24633
# 43157
# 60686
# 75545
# 90276
# 101895
# 117669
# 129381
# 147642
#
# Disc length: 2170 seconds
#
#
# Revision: 0
# Processed by: cddbd v1.4PL0 Copyright (c) Steve Scherf et al.
# Submitted via: FreeRIP 2.51 
#
DISCID=8b08780a
DTITLE=Juke - Still Dealin' With The Blues
DYEAR=2003
DGENRE=Blues
TTITLE0=Postmillenium stress
TTITLE1=How you gonna pay the bill ?
TTITLE2=Still Dealin' with the Blues
TTITLE3=Significant other
TTITLE4=Good time
TTITLE5=Repossesion time
TTITLE6=Everybody's watching Big Brother
TTITLE7=The Gulf war didn't happen
TTITLE8=Each and every day of the week
TTITLE9=Listen you
EXTD=
EXTT0=
EXTT1=
EXTT2=
EXTT3=
EXTT4=
EXTT5=
EXTT6=
EXTT7=
EXTT8=
EXTT9=
PLAYORDER=
